<svg width="320" height="93" viewBox="0 0 320 93" fill="none" xmlns="http://www.w3.org/2000/svg">
<path d="M7.85346 60.026C7.85346 71.042 13.5655 74.612 24.3775 74.612C27.9475 74.612 31.0075 74.306 33.5575 73.796V61.964C31.7215 62.168 30.7015 62.27 28.6615 62.27C24.4795 62.27 21.9295 61.658 21.9295 57.068V32.282H32.8435V20.348H21.9295V5.04799H7.85346V20.348H0.71346V32.282H7.85346V60.026ZM64.1272 75.122C74.8372 75.122 83.9152 69.614 87.7912 59.822L75.7552 55.538C74.1232 60.74 69.7372 63.392 64.2292 63.392C57.1912 63.392 52.1932 58.496 51.1732 50.336H88.0972V46.154C88.0972 31.16 79.5292 19.328 63.6172 19.328C48.4192 19.328 37.5052 31.364 37.5052 47.174C37.5052 63.8 48.3172 75.122 64.1272 75.122ZM63.5152 30.752C70.4512 30.752 73.8172 35.342 73.9192 40.646H51.6832C53.4172 34.118 57.8032 30.752 63.5152 30.752ZM127.556 20.246C126.536 20.144 125.516 20.042 124.088 20.042C117.458 20.042 112.154 23.204 109.808 27.896V20.348H95.528V74H109.808V46.766C109.808 38.504 115.52 33.914 122.966 33.914C124.7 33.914 125.924 34.016 127.556 34.22V20.246ZM147.543 74.918C154.581 74.918 159.987 72.776 163.455 69.002C165.801 73.49 171.309 75.326 180.387 74V63.29C177.225 63.698 176.001 62.78 176.001 59.924V37.994C176.001 25.55 167.841 19.328 154.275 19.328C141.525 19.328 133.365 26.672 130.917 35.75L144.483 38.3C145.707 33.506 148.461 31.16 153.765 31.16C159.681 31.16 162.027 34.016 162.027 38.606V39.422L148.665 41.972C137.853 43.91 129.285 48.398 129.285 59.108C129.285 68.594 137.037 74.918 147.543 74.918ZM162.027 54.926C162.027 60.944 156.417 64.106 150.399 64.106C146.115 64.106 143.361 61.964 143.361 58.292C143.361 54.008 146.829 52.478 151.521 51.56L162.027 49.418V54.926ZM201.7 0.763994H187.42V74H201.7V0.763994ZM212.194 14.024H226.78V0.763994H212.194V14.024ZM226.678 20.348H212.398V74H226.678V20.348ZM238.804 60.026C238.804 71.042 244.516 74.612 255.328 74.612C258.898 74.612 261.958 74.306 264.508 73.796V61.964C262.672 62.168 261.652 62.27 259.612 62.27C255.43 62.27 252.88 61.658 252.88 57.068V32.282H263.794V20.348H252.88V5.04799H238.804V20.348H231.664V32.282H238.804V60.026ZM298.128 77.06L319.344 20.348H304.962L293.13 55.64L280.992 20.348H266.202L285.48 71.858L283.746 76.142C282.216 80.018 280.176 81.038 276.402 81.038C274.77 81.038 273.852 80.936 272.322 80.834V92.36C274.158 92.564 275.178 92.666 277.932 92.666C289.764 92.666 294.66 86.546 298.128 77.06Z" fill="#171B1E"/>
</svg>
